<svg width="10" height="16" viewBox="0 0 10 16" fill="none" xmlns="http://www.w3.org/2000/svg">
    <path d="M1.625 2.75C2.24632 2.75 2.75 2.24632 2.75 1.625C2.75 1.00368 2.24632 0.5 1.625 0.5C1.00368 0.5 0.5 1.00368 0.5 1.625C0.5 2.24632 1.00368 2.75 1.625 2.75Z" fill="black"/>
    <path d="M8.375 2.75C8.99632 2.75 9.5 2.24632 9.5 1.625C9.5 1.00368 8.99632 0.5 8.375 0.5C7.75368 0.5 7.25 1.00368 7.25 1.625C7.25 2.24632 7.75368 2.75 8.375 2.75Z" fill="black"/>
    <path d="M1.625 9.125C2.24632 9.125 2.75 8.62132 2.75 8C2.75 7.37868 2.24632 6.875 1.625 6.875C1.00368 6.875 0.5 7.37868 0.5 8C0.5 8.62132 1.00368 9.125 1.625 9.125Z" fill="black"/>
    <path d="M8.375 9.125C8.99632 9.125 9.5 8.62132 9.5 8C9.5 7.37868 8.99632 6.875 8.375 6.875C7.75368 6.875 7.25 7.37868 7.25 8C7.25 8.62132 7.75368 9.125 8.375 9.125Z" fill="black"/>
    <path d="M1.625 15.5C2.24632 15.5 2.75 14.9963 2.75 14.375C2.75 13.7537 2.24632 13.25 1.625 13.25C1.00368 13.25 0.5 13.7537 0.5 14.375C0.5 14.9963 1.00368 15.5 1.625 15.5Z" fill="black"/>
    <path d="M8.375 15.5C8.99632 15.5 9.5 14.9963 9.5 14.375C9.5 13.7537 8.99632 13.25 8.375 13.25C7.75368 13.25 7.25 13.7537 7.25 14.375C7.25 14.9963 7.75368 15.5 8.375 15.5Z" fill="black"/>
    </svg>
    